<?xml version='1.0' encoding='UTF-8' standalone='no'?>
<svg
    xmlns='http://www.w3.org/2000/svg'
    version='1.1'>
<g>
    <path
        stroke-width="1"
        stroke="black"
        d="M -150 0 L -150 -130 A 300 300 1 0 1 -50 -140 L -50 -180 L 50 -180 L 50 -140 A 300 300 1 0 1 150 -130 L 150 90 A 75 75 1 0 1 75 165 L 75 200 L -75 200 L -75 165 A 75 75 1 0 1 -150 90 L -150 0"
        class="outer" />
    <path
        stroke-width="1"
        stroke="black"
        d="M 0 -50 L 175 -50 L 175 50 L -175 50 L -175 -50 L 0 -50"
        class="outer" />
    <g id="handles">
        <polyline
            id="north"
            points="0 -180" />
        <polyline
            id="south"
            points="0 200" />
		<polyline
			id="east"
			points="175 0" />
		<polyline
			id="west"
			points="-175 0" />
    </g>
</g>
</svg>
